<svg width="107" height="95" viewBox="0 0 107 95" fill="none" xmlns="http://www.w3.org/2000/svg">
<path d="M8.5 56C8.5 63.732 11.9853 69 9.5 69C7.01472 69 0.5 63.732 0.5 56C0.5 48.268 6.01472 42 8.5 42C10.9853 42 8.5 48.268 8.5 56Z" fill="white"/>
<path d="M99 56C99 63.732 95.5147 69 98 69C100.485 69 107 63.732 107 56C107 48.268 101.485 42 99 42C96.5147 42 99 48.268 99 56Z" fill="white"/>
<path d="M53.5 16C76.9721 16 96 33.6848 96 55.5C96 77.3152 76.9721 95 53.5 95C30.0279 95 11 77.3152 11 55.5C11 33.6848 30.0279 16 53.5 16ZM54 35C46.0222 35 37.2056 35.7872 31.5 39C24.171 43.1269 21 50.513 21 57.5C21 63.2983 23.7168 69.5106 29 73.5C35.0393 78.0603 44.2788 80 54 80C64.5589 80 74.4596 77.261 80.5 72C84.8857 68.1802 87 62.7271 87 57.5C87 50.513 84.329 43.1269 77 39C71.2944 35.7872 61.9778 35 54 35Z" fill="white"/>
<rect x="53" y="11" width="2" height="7" fill="white"/>
<circle cx="54" cy="6" r="6" fill="white"/>
<ellipse cx="39.9089" cy="54.2173" rx="3.5" ry="5.5" transform="rotate(-4.37038 39.9089 54.2173)" fill="white"/>
<ellipse cx="3.5" cy="5.5" rx="3.5" ry="5.5" transform="matrix(-0.997092 -0.0762035 -0.0762035 0.997092 72.2268 49)" fill="white"/>
<path d="M65.5 64.6516C65.5 65.48 61.1274 71 54.5 71C47.8726 71 43 67.1516 43 65.6516C43 63.6516 47.8726 68.5 54.5 68.5C61.1274 68.5 65 62.5 65.5 64.6516Z" fill="white"/>
</svg>
