<svg width="27" height="27" viewBox="0 0 27 27" fill="none" xmlns="http://www.w3.org/2000/svg">
<path d="M25.785 0.605001C25.005 -0.175 23.745 -0.175 22.965 0.605001L13.185 10.365L3.405 0.585C2.625 -0.195 1.365 -0.195 0.585 0.585C-0.195 1.365 -0.195 2.625 0.585 3.405L10.365 13.185L0.585 22.965C-0.195 23.745 -0.195 25.005 0.585 25.785C1.365 26.565 2.625 26.565 3.405 25.785L13.185 16.005L22.965 25.785C23.745 26.565 25.005 26.565 25.785 25.785C26.565 25.005 26.565 23.745 25.785 22.965L16.005 13.185L25.785 3.405C26.545 2.645 26.545 1.365 25.785 0.605001Z" fill="white"/>
</svg>
